<mxfile host="app.diagrams.net" modified="2024-04-04T10:02:41.167Z" agent="Mozilla/5.0 (Macintosh; Intel Mac OS X 10_15_7) AppleWebKit/537.36 (KHTML, like Gecko) Chrome/123.0.0.0 Safari/537.36 OPR/109.0.0.0" etag="7HZsrk1WgVrfD_fJWBIb" version="24.2.2" type="github">
  <diagram name="Page-1" id="O2KQqQ0y2aDYyK8URsUT">
    <mxGraphModel dx="956" dy="1849" grid="1" gridSize="10" guides="1" tooltips="1" connect="1" arrows="1" fold="1" page="1" pageScale="1" pageWidth="827" pageHeight="1169" math="0" shadow="0">
      <root>
        <mxCell id="0" />
        <mxCell id="1" parent="0" />
        <mxCell id="IK5Il55TeBvra9iN9kZJ-27" style="edgeStyle=orthogonalEdgeStyle;rounded=0;orthogonalLoop=1;jettySize=auto;html=1;entryX=0.5;entryY=0;entryDx=0;entryDy=0;endSize=16;startSize=16;endArrow=open;endFill=0;" edge="1" parent="1" source="IK5Il55TeBvra9iN9kZJ-1" target="IK5Il55TeBvra9iN9kZJ-5">
          <mxGeometry relative="1" as="geometry" />
        </mxCell>
        <mxCell id="IK5Il55TeBvra9iN9kZJ-1" value="TransportCard" style="swimlane;fontStyle=1;align=center;verticalAlign=top;childLayout=stackLayout;horizontal=1;startSize=26;horizontalStack=0;resizeParent=1;resizeParentMax=0;resizeLast=0;collapsible=1;marginBottom=0;whiteSpace=wrap;html=1;" vertex="1" parent="1">
          <mxGeometry x="10" y="-570" width="160" height="110" as="geometry" />
        </mxCell>
        <mxCell id="IK5Il55TeBvra9iN9kZJ-2" value="+ticket_count: Int" style="text;strokeColor=none;fillColor=none;align=left;verticalAlign=top;spacingLeft=4;spacingRight=4;overflow=hidden;rotatable=0;points=[[0,0.5],[1,0.5]];portConstraint=eastwest;whiteSpace=wrap;html=1;" vertex="1" parent="IK5Il55TeBvra9iN9kZJ-1">
          <mxGeometry y="26" width="160" height="26" as="geometry" />
        </mxCell>
        <mxCell id="IK5Il55TeBvra9iN9kZJ-3" value="" style="line;strokeWidth=1;fillColor=none;align=left;verticalAlign=middle;spacingTop=-1;spacingLeft=3;spacingRight=3;rotatable=0;labelPosition=right;points=[];portConstraint=eastwest;strokeColor=inherit;" vertex="1" parent="IK5Il55TeBvra9iN9kZJ-1">
          <mxGeometry y="52" width="160" height="8" as="geometry" />
        </mxCell>
        <mxCell id="IK5Il55TeBvra9iN9kZJ-4" value="+charge: Int&lt;div&gt;+use: Int&lt;/div&gt;" style="text;strokeColor=none;fillColor=none;align=left;verticalAlign=top;spacingLeft=4;spacingRight=4;overflow=hidden;rotatable=0;points=[[0,0.5],[1,0.5]];portConstraint=eastwest;whiteSpace=wrap;html=1;" vertex="1" parent="IK5Il55TeBvra9iN9kZJ-1">
          <mxGeometry y="60" width="160" height="50" as="geometry" />
        </mxCell>
        <mxCell id="IK5Il55TeBvra9iN9kZJ-5" value="PublicTransportVehicle" style="swimlane;fontStyle=1;align=center;verticalAlign=top;childLayout=stackLayout;horizontal=1;startSize=26;horizontalStack=0;resizeParent=1;resizeParentMax=0;resizeLast=0;collapsible=1;marginBottom=0;whiteSpace=wrap;html=1;" vertex="1" parent="1">
          <mxGeometry x="10" y="-380" width="160" height="86" as="geometry" />
        </mxCell>
        <mxCell id="IK5Il55TeBvra9iN9kZJ-6" value="+required_ticket_count: Int" style="text;strokeColor=none;fillColor=none;align=left;verticalAlign=top;spacingLeft=4;spacingRight=4;overflow=hidden;rotatable=0;points=[[0,0.5],[1,0.5]];portConstraint=eastwest;whiteSpace=wrap;html=1;" vertex="1" parent="IK5Il55TeBvra9iN9kZJ-5">
          <mxGeometry y="26" width="160" height="26" as="geometry" />
        </mxCell>
        <mxCell id="IK5Il55TeBvra9iN9kZJ-7" value="" style="line;strokeWidth=1;fillColor=none;align=left;verticalAlign=middle;spacingTop=-1;spacingLeft=3;spacingRight=3;rotatable=0;labelPosition=right;points=[];portConstraint=eastwest;strokeColor=inherit;" vertex="1" parent="IK5Il55TeBvra9iN9kZJ-5">
          <mxGeometry y="52" width="160" height="8" as="geometry" />
        </mxCell>
        <mxCell id="IK5Il55TeBvra9iN9kZJ-8" value="+validate_trip: Int" style="text;strokeColor=none;fillColor=none;align=left;verticalAlign=top;spacingLeft=4;spacingRight=4;overflow=hidden;rotatable=0;points=[[0,0.5],[1,0.5]];portConstraint=eastwest;whiteSpace=wrap;html=1;" vertex="1" parent="IK5Il55TeBvra9iN9kZJ-5">
          <mxGeometry y="60" width="160" height="26" as="geometry" />
        </mxCell>
        <mxCell id="IK5Il55TeBvra9iN9kZJ-13" value="Metro" style="swimlane;fontStyle=1;align=center;verticalAlign=top;childLayout=stackLayout;horizontal=1;startSize=26;horizontalStack=0;resizeParent=1;resizeParentMax=0;resizeLast=0;collapsible=1;marginBottom=0;whiteSpace=wrap;html=1;" vertex="1" parent="1">
          <mxGeometry x="180" y="-440" width="160" height="34" as="geometry" />
        </mxCell>
        <mxCell id="IK5Il55TeBvra9iN9kZJ-15" value="" style="line;strokeWidth=1;fillColor=none;align=left;verticalAlign=middle;spacingTop=-1;spacingLeft=3;spacingRight=3;rotatable=0;labelPosition=right;points=[];portConstraint=eastwest;strokeColor=inherit;" vertex="1" parent="IK5Il55TeBvra9iN9kZJ-13">
          <mxGeometry y="26" width="160" height="8" as="geometry" />
        </mxCell>
        <mxCell id="IK5Il55TeBvra9iN9kZJ-17" value="Bus" style="swimlane;fontStyle=1;align=center;verticalAlign=top;childLayout=stackLayout;horizontal=1;startSize=26;horizontalStack=0;resizeParent=1;resizeParentMax=0;resizeLast=0;collapsible=1;marginBottom=0;whiteSpace=wrap;html=1;" vertex="1" parent="1">
          <mxGeometry x="184" y="-280" width="160" height="34" as="geometry" />
        </mxCell>
        <mxCell id="IK5Il55TeBvra9iN9kZJ-19" value="" style="line;strokeWidth=1;fillColor=none;align=left;verticalAlign=middle;spacingTop=-1;spacingLeft=3;spacingRight=3;rotatable=0;labelPosition=right;points=[];portConstraint=eastwest;strokeColor=inherit;" vertex="1" parent="IK5Il55TeBvra9iN9kZJ-17">
          <mxGeometry y="26" width="160" height="8" as="geometry" />
        </mxCell>
        <mxCell id="IK5Il55TeBvra9iN9kZJ-21" style="edgeStyle=orthogonalEdgeStyle;rounded=0;orthogonalLoop=1;jettySize=auto;html=1;entryX=1;entryY=0.5;entryDx=0;entryDy=0;endSize=16;startSize=16;endArrow=none;endFill=0;startArrow=block;startFill=0;" edge="1" parent="1" target="IK5Il55TeBvra9iN9kZJ-6">
          <mxGeometry relative="1" as="geometry">
            <mxPoint x="220" y="-401" as="sourcePoint" />
          </mxGeometry>
        </mxCell>
        <mxCell id="IK5Il55TeBvra9iN9kZJ-22" style="edgeStyle=orthogonalEdgeStyle;rounded=0;orthogonalLoop=1;jettySize=auto;html=1;entryX=1;entryY=0.5;entryDx=0;entryDy=0;endArrow=none;endFill=0;startArrow=block;startFill=0;endSize=16;startSize=16;" edge="1" parent="1" target="IK5Il55TeBvra9iN9kZJ-6">
          <mxGeometry relative="1" as="geometry">
            <mxPoint x="220" y="-281" as="sourcePoint" />
          </mxGeometry>
        </mxCell>
        <mxCell id="IK5Il55TeBvra9iN9kZJ-23" value="Extends" style="text;html=1;align=center;verticalAlign=middle;resizable=0;points=[];autosize=1;strokeColor=none;fillColor=none;" vertex="1" parent="1">
          <mxGeometry x="184" y="-352" width="70" height="30" as="geometry" />
        </mxCell>
        <mxCell id="IK5Il55TeBvra9iN9kZJ-28" value="MachineDeFabrication" style="swimlane;fontStyle=1;align=center;verticalAlign=top;childLayout=stackLayout;horizontal=1;startSize=26;horizontalStack=0;resizeParent=1;resizeParentMax=0;resizeLast=0;collapsible=1;marginBottom=0;whiteSpace=wrap;html=1;" vertex="1" parent="1">
          <mxGeometry x="290" y="20" width="160" height="56" as="geometry" />
        </mxCell>
        <mxCell id="IK5Il55TeBvra9iN9kZJ-29" value="" style="text;strokeColor=default;fillColor=none;align=left;verticalAlign=top;spacingLeft=4;spacingRight=4;overflow=hidden;rotatable=0;points=[[0,0.5],[1,0.5]];portConstraint=eastwest;whiteSpace=wrap;html=1;" vertex="1" parent="IK5Il55TeBvra9iN9kZJ-28">
          <mxGeometry y="26" width="160" height="4" as="geometry" />
        </mxCell>
        <mxCell id="IK5Il55TeBvra9iN9kZJ-31" value="+cout" style="text;strokeColor=none;fillColor=none;align=left;verticalAlign=top;spacingLeft=4;spacingRight=4;overflow=hidden;rotatable=0;points=[[0,0.5],[1,0.5]];portConstraint=eastwest;whiteSpace=wrap;html=1;" vertex="1" parent="IK5Il55TeBvra9iN9kZJ-28">
          <mxGeometry y="30" width="160" height="26" as="geometry" />
        </mxCell>
        <mxCell id="IK5Il55TeBvra9iN9kZJ-32" value="MachineD&#39;Emballage" style="swimlane;fontStyle=1;align=center;verticalAlign=top;childLayout=stackLayout;horizontal=1;startSize=26;horizontalStack=0;resizeParent=1;resizeParentMax=0;resizeLast=0;collapsible=1;marginBottom=0;whiteSpace=wrap;html=1;" vertex="1" parent="1">
          <mxGeometry x="60" y="20" width="160" height="60" as="geometry" />
        </mxCell>
        <mxCell id="IK5Il55TeBvra9iN9kZJ-34" value="" style="line;strokeWidth=1;fillColor=none;align=left;verticalAlign=middle;spacingTop=-1;spacingLeft=3;spacingRight=3;rotatable=0;labelPosition=right;points=[];portConstraint=eastwest;strokeColor=inherit;" vertex="1" parent="IK5Il55TeBvra9iN9kZJ-32">
          <mxGeometry y="26" width="160" height="8" as="geometry" />
        </mxCell>
        <mxCell id="IK5Il55TeBvra9iN9kZJ-35" value="+cout" style="text;strokeColor=none;fillColor=none;align=left;verticalAlign=top;spacingLeft=4;spacingRight=4;overflow=hidden;rotatable=0;points=[[0,0.5],[1,0.5]];portConstraint=eastwest;whiteSpace=wrap;html=1;" vertex="1" parent="IK5Il55TeBvra9iN9kZJ-32">
          <mxGeometry y="34" width="160" height="26" as="geometry" />
        </mxCell>
        <mxCell id="IK5Il55TeBvra9iN9kZJ-40" style="edgeStyle=orthogonalEdgeStyle;rounded=0;orthogonalLoop=1;jettySize=auto;html=1;endArrow=none;endFill=0;startArrow=open;startFill=0;" edge="1" parent="1" source="IK5Il55TeBvra9iN9kZJ-36" target="IK5Il55TeBvra9iN9kZJ-28">
          <mxGeometry relative="1" as="geometry" />
        </mxCell>
        <mxCell id="IK5Il55TeBvra9iN9kZJ-41" style="edgeStyle=orthogonalEdgeStyle;rounded=0;orthogonalLoop=1;jettySize=auto;html=1;endArrow=none;endFill=0;startArrow=open;startFill=0;endSize=16;startSize=16;" edge="1" parent="1" source="IK5Il55TeBvra9iN9kZJ-36" target="IK5Il55TeBvra9iN9kZJ-32">
          <mxGeometry relative="1" as="geometry" />
        </mxCell>
        <mxCell id="IK5Il55TeBvra9iN9kZJ-36" value="Technicien" style="swimlane;fontStyle=1;align=center;verticalAlign=top;childLayout=stackLayout;horizontal=1;startSize=26;horizontalStack=0;resizeParent=1;resizeParentMax=0;resizeLast=0;collapsible=1;marginBottom=0;whiteSpace=wrap;html=1;" vertex="1" parent="1">
          <mxGeometry x="470" y="90" width="160" height="104" as="geometry" />
        </mxCell>
        <mxCell id="IK5Il55TeBvra9iN9kZJ-37" value="+nom: String&lt;div&gt;+cout_par_jour: Int&lt;/div&gt;" style="text;strokeColor=none;fillColor=none;align=left;verticalAlign=top;spacingLeft=4;spacingRight=4;overflow=hidden;rotatable=0;points=[[0,0.5],[1,0.5]];portConstraint=eastwest;whiteSpace=wrap;html=1;" vertex="1" parent="IK5Il55TeBvra9iN9kZJ-36">
          <mxGeometry y="26" width="160" height="44" as="geometry" />
        </mxCell>
        <mxCell id="IK5Il55TeBvra9iN9kZJ-38" value="" style="line;strokeWidth=1;fillColor=none;align=left;verticalAlign=middle;spacingTop=-1;spacingLeft=3;spacingRight=3;rotatable=0;labelPosition=right;points=[];portConstraint=eastwest;strokeColor=inherit;" vertex="1" parent="IK5Il55TeBvra9iN9kZJ-36">
          <mxGeometry y="70" width="160" height="8" as="geometry" />
        </mxCell>
        <mxCell id="IK5Il55TeBvra9iN9kZJ-39" value="+cout_technicien" style="text;strokeColor=none;fillColor=none;align=left;verticalAlign=top;spacingLeft=4;spacingRight=4;overflow=hidden;rotatable=0;points=[[0,0.5],[1,0.5]];portConstraint=eastwest;whiteSpace=wrap;html=1;" vertex="1" parent="IK5Il55TeBvra9iN9kZJ-36">
          <mxGeometry y="78" width="160" height="26" as="geometry" />
        </mxCell>
        <mxCell id="IK5Il55TeBvra9iN9kZJ-47" style="edgeStyle=orthogonalEdgeStyle;rounded=0;orthogonalLoop=1;jettySize=auto;html=1;endSize=16;startSize=16;endArrow=none;endFill=0;startArrow=open;startFill=0;" edge="1" parent="1" source="IK5Il55TeBvra9iN9kZJ-43" target="IK5Il55TeBvra9iN9kZJ-36">
          <mxGeometry relative="1" as="geometry" />
        </mxCell>
        <mxCell id="IK5Il55TeBvra9iN9kZJ-48" style="edgeStyle=orthogonalEdgeStyle;rounded=0;orthogonalLoop=1;jettySize=auto;html=1;entryX=0.5;entryY=0;entryDx=0;entryDy=0;startArrow=open;startFill=0;endArrow=none;endFill=0;endSize=16;startSize=16;" edge="1" parent="1" source="IK5Il55TeBvra9iN9kZJ-43" target="IK5Il55TeBvra9iN9kZJ-28">
          <mxGeometry relative="1" as="geometry" />
        </mxCell>
        <mxCell id="IK5Il55TeBvra9iN9kZJ-49" style="edgeStyle=orthogonalEdgeStyle;rounded=0;orthogonalLoop=1;jettySize=auto;html=1;entryX=0.5;entryY=0;entryDx=0;entryDy=0;startArrow=open;startFill=0;endArrow=none;endFill=0;endSize=16;startSize=16;" edge="1" parent="1" source="IK5Il55TeBvra9iN9kZJ-43" target="IK5Il55TeBvra9iN9kZJ-32">
          <mxGeometry relative="1" as="geometry">
            <mxPoint x="570" y="-157" as="sourcePoint" />
            <mxPoint x="140" as="targetPoint" />
          </mxGeometry>
        </mxCell>
        <mxCell id="IK5Il55TeBvra9iN9kZJ-43" value="Usine" style="swimlane;fontStyle=1;align=center;verticalAlign=top;childLayout=stackLayout;horizontal=1;startSize=26;horizontalStack=0;resizeParent=1;resizeParentMax=0;resizeLast=0;collapsible=1;marginBottom=0;whiteSpace=wrap;html=1;" vertex="1" parent="1">
          <mxGeometry x="470" y="-90" width="160" height="104" as="geometry" />
        </mxCell>
        <mxCell id="IK5Il55TeBvra9iN9kZJ-44" value="+gils&lt;div&gt;+nombre_piece&lt;/div&gt;&lt;div&gt;&lt;br&gt;&lt;/div&gt;" style="text;strokeColor=none;fillColor=none;align=left;verticalAlign=top;spacingLeft=4;spacingRight=4;overflow=hidden;rotatable=0;points=[[0,0.5],[1,0.5]];portConstraint=eastwest;whiteSpace=wrap;html=1;" vertex="1" parent="IK5Il55TeBvra9iN9kZJ-43">
          <mxGeometry y="26" width="160" height="44" as="geometry" />
        </mxCell>
        <mxCell id="IK5Il55TeBvra9iN9kZJ-45" value="" style="line;strokeWidth=1;fillColor=none;align=left;verticalAlign=middle;spacingTop=-1;spacingLeft=3;spacingRight=3;rotatable=0;labelPosition=right;points=[];portConstraint=eastwest;strokeColor=inherit;" vertex="1" parent="IK5Il55TeBvra9iN9kZJ-43">
          <mxGeometry y="70" width="160" height="8" as="geometry" />
        </mxCell>
        <mxCell id="IK5Il55TeBvra9iN9kZJ-46" value="+creation_piece" style="text;strokeColor=none;fillColor=none;align=left;verticalAlign=top;spacingLeft=4;spacingRight=4;overflow=hidden;rotatable=0;points=[[0,0.5],[1,0.5]];portConstraint=eastwest;whiteSpace=wrap;html=1;" vertex="1" parent="IK5Il55TeBvra9iN9kZJ-43">
          <mxGeometry y="78" width="160" height="26" as="geometry" />
        </mxCell>
      </root>
    </mxGraphModel>
  </diagram>
</mxfile>
